<svg xmlns="http://www.w3.org/2000/svg" xmlns:xlink="http://www.w3.org/1999/xlink" width="1920" zoomAndPan="magnify" viewBox="0 0 1440 809.999993" height="1080" preserveAspectRatio="xMidYMid meet" version="1.0"><defs><g/><clipPath id="934b5e4851"><path d="M 271.253906 196.550781 L 485.753906 196.550781 L 485.753906 505.550781 L 271.253906 505.550781 Z M 271.253906 196.550781 " clip-rule="nonzero"/></clipPath><clipPath id="3bbad9840d"><path d="M 264.183594 191.4375 L 492.183594 191.4375 L 492.183594 515.4375 L 264.183594 515.4375 Z M 264.183594 191.4375 " clip-rule="nonzero"/></clipPath><clipPath id="9974e9aaed"><path d="M 312.871094 235.90625 L 450.136719 235.90625 L 450.136719 373.175781 L 312.871094 373.175781 Z M 312.871094 235.90625 " clip-rule="nonzero"/></clipPath><clipPath id="36b105148e"><path d="M 381.503906 235.90625 C 343.597656 235.90625 312.871094 266.636719 312.871094 304.539062 C 312.871094 342.445312 343.597656 373.175781 381.503906 373.175781 C 419.410156 373.175781 450.136719 342.445312 450.136719 304.539062 C 450.136719 266.636719 419.410156 235.90625 381.503906 235.90625 Z M 381.503906 235.90625 " clip-rule="nonzero"/></clipPath><clipPath id="3eb4fe7c07"><path d="M 0.871094 0.90625 L 138.136719 0.90625 L 138.136719 138.175781 L 0.871094 138.175781 Z M 0.871094 0.90625 " clip-rule="nonzero"/></clipPath><clipPath id="f2bf4e7b78"><path d="M 69.503906 0.90625 C 31.597656 0.90625 0.871094 31.636719 0.871094 69.539062 C 0.871094 107.445312 31.597656 138.175781 69.503906 138.175781 C 107.410156 138.175781 138.136719 107.445312 138.136719 69.539062 C 138.136719 31.636719 107.410156 0.90625 69.503906 0.90625 Z M 69.503906 0.90625 " clip-rule="nonzero"/></clipPath><clipPath id="8a77663255"><rect x="0" width="139" y="0" height="139"/></clipPath><clipPath id="2c46407cb6"><rect x="0" width="87" y="0" height="233"/></clipPath></defs><g clip-path="url(#934b5e4851)"><path fill="#ffffff" d="M 378.332031 196.515625 C 319.230469 196.515625 271.332031 244.414062 271.332031 303.511719 C 271.332031 313.34375 272.683594 322.855469 275.171875 331.894531 C 277.324219 339.761719 280.339844 347.285156 284.148438 354.320312 C 285.066406 356.019531 286.039062 357.691406 287.039062 359.339844 L 367.710938 499.066406 C 367.882812 499.367188 368.039062 499.679688 368.230469 499.972656 C 370.449219 503.175781 374.140625 505.269531 378.324219 505.269531 C 382.519531 505.269531 386.222656 503.148438 388.4375 499.933594 L 388.78125 499.335938 L 469.597656 359.363281 L 472.515625 354.3125 C 476.316406 347.277344 479.328125 339.753906 481.492188 331.894531 C 483.96875 322.855469 485.324219 313.34375 485.324219 303.511719 C 485.324219 244.414062 437.421875 196.515625 378.332031 196.515625 Z M 378.324219 348.367188 C 353.542969 348.367188 333.457031 328.28125 333.457031 303.511719 C 333.457031 278.730469 353.539062 258.640625 378.324219 258.640625 C 403.105469 258.640625 423.179688 278.730469 423.179688 303.511719 C 423.179688 328.28125 403.105469 348.367188 378.324219 348.367188 Z M 378.324219 348.367188 " fill-opacity="1" fill-rule="nonzero"/></g><g clip-path="url(#3bbad9840d)"><path fill="#006ffd" d="M 378.136719 515.050781 C 375.617188 515.050781 373.296875 513.683594 372.078125 511.480469 C 365.085938 498.867188 354.332031 481.757812 341.878906 461.949219 C 307.253906 406.867188 264.160156 338.316406 264.160156 305.800781 C 264.160156 242.953125 315.289062 191.824219 378.136719 191.824219 C 440.980469 191.824219 492.109375 242.953125 492.109375 305.800781 C 492.109375 340.003906 451.464844 403.945312 415.601562 460.363281 C 403.273438 479.757812 391.628906 498.078125 384.195312 511.480469 C 382.972656 513.683594 380.652344 515.050781 378.136719 515.050781 Z M 378.136719 205.679688 C 322.929688 205.679688 278.015625 250.59375 278.015625 305.800781 C 278.015625 334.320312 321.707031 403.828125 353.609375 454.578125 C 363.023438 469.554688 371.476562 483 378.144531 494.25 C 385.3125 482.1875 394.410156 467.875 403.910156 452.929688 C 435.285156 403.570312 478.253906 335.972656 478.253906 305.800781 C 478.253906 250.59375 433.339844 205.679688 378.136719 205.679688 Z M 378.136719 205.679688 " fill-opacity="1" fill-rule="nonzero"/></g><path fill="#006ffd" d="M 378.136719 356.523438 C 347.941406 356.523438 323.378906 331.960938 323.378906 301.765625 C 323.378906 271.574219 347.941406 247.011719 378.136719 247.011719 C 408.339844 247.011719 432.910156 271.574219 432.910156 301.765625 C 432.910156 331.960938 408.339844 356.523438 378.136719 356.523438 Z M 378.136719 260.863281 C 355.582031 260.863281 337.234375 279.210938 337.234375 301.765625 C 337.234375 324.320312 355.582031 342.667969 378.136719 342.667969 C 400.699219 342.667969 419.054688 324.320312 419.054688 301.765625 C 419.054688 279.210938 400.699219 260.863281 378.136719 260.863281 Z M 378.136719 260.863281 " fill-opacity="1" fill-rule="nonzero"/><g clip-path="url(#9974e9aaed)"><g clip-path="url(#36b105148e)"><g transform="matrix(1, 0, 0, 1, 312, 235)"><g clip-path="url(#8a77663255)"><g clip-path="url(#3eb4fe7c07)"><g clip-path="url(#f2bf4e7b78)"><path fill="#ffffff" d="M 0.871094 0.90625 L 138.136719 0.90625 L 138.136719 138.175781 L 0.871094 138.175781 Z M 0.871094 0.90625 " fill-opacity="1" fill-rule="nonzero"/></g></g></g></g></g></g><g transform="matrix(1, 0, 0, 1, 333, 211)"><g clip-path="url(#2c46407cb6)"><g fill="#006ffd" fill-opacity="1"><g transform="translate(1.076708, 182.326575)"><g><path d="M 31.203125 -107.5625 L 34.859375 -47.140625 C 35.078125 -42.929688 35.796875 -39.773438 37.015625 -37.671875 C 38.234375 -35.460938 40.003906 -34.359375 42.328125 -34.359375 C 44.765625 -34.359375 46.585938 -35.460938 47.796875 -37.671875 C 48.796875 -39.671875 49.460938 -42.828125 49.796875 -47.140625 L 53.453125 -107.5625 C 54.003906 -113.757812 53.226562 -118.296875 51.125 -121.171875 C 49.238281 -123.492188 46.359375 -124.65625 42.484375 -124.65625 C 38.617188 -124.65625 35.742188 -123.492188 33.859375 -121.171875 C 31.535156 -118.296875 30.648438 -113.757812 31.203125 -107.5625 Z M 51.125 -0.171875 C 53.78125 -2.265625 55.109375 -4.972656 55.109375 -8.296875 C 55.109375 -11.617188 53.78125 -14.382812 51.125 -16.59375 C 48.582031 -18.59375 45.648438 -19.59375 42.328125 -19.59375 C 38.898438 -19.59375 35.910156 -18.59375 33.359375 -16.59375 C 30.816406 -14.382812 29.546875 -11.617188 29.546875 -8.296875 C 29.546875 -4.972656 30.816406 -2.257812 33.359375 -0.15625 C 35.910156 1.9375 38.898438 2.984375 42.328125 2.984375 C 45.648438 2.984375 48.582031 1.929688 51.125 -0.171875 Z M 51.125 -0.171875 "/></g></g></g></g></g><path stroke-linecap="round" transform="matrix(-0.75, -0.000000001309, 0.000000001309, -0.75, 541.774779, 617.139133)" fill="none" stroke-linejoin="miter" d="M 9.501789 9.498011 L 436.710144 9.49801 " stroke="#006ffd" stroke-width="19" stroke-opacity="1" stroke-miterlimit="4"/><path stroke-linecap="round" transform="matrix(-0.273906, 0.698195, -0.698195, -0.273906, 287.489053, 451.830381)" fill="none" stroke-linejoin="miter" d="M 9.49792 9.501096 L 228.73546 9.501675 " stroke="#006ffd" stroke-width="19" stroke-opacity="1" stroke-miterlimit="4"/><path stroke-linecap="round" transform="matrix(0.268888, 0.700142, -0.700142, 0.268888, 483.07503, 446.655406)" fill="none" stroke-linejoin="miter" d="M 9.497 9.501057 L 228.732292 9.501682 " stroke="#006ffd" stroke-width="19" stroke-opacity="1" stroke-miterlimit="4"/><path stroke-linecap="round" transform="matrix(-0.75, 0.000000001309, -0.000000001309, -0.75, 349.805144, 462.728205)" fill="none" stroke-linejoin="miter" d="M 9.500609 9.50219 L 95.240197 9.50219 " stroke="#006ffd" stroke-width="19" stroke-opacity="1" stroke-miterlimit="4"/><path stroke-linecap="round" transform="matrix(-0.75, 0.000000001309, -0.000000001309, -0.75, 485.407398, 462.728205)" fill="none" stroke-linejoin="miter" d="M 9.501531 9.50219 L 97.470285 9.50219 " stroke="#006ffd" stroke-width="19" stroke-opacity="1" stroke-miterlimit="4"/><g fill="#006ffd" fill-opacity="1"><g transform="translate(589.880593, 552.749992)"><g><path d="M 18.859375 -106.828125 L 19.21875 -106.828125 C 19.21875 -102.640625 19.21875 -98.445312 19.21875 -94.25 C 19.21875 -90.0625 19.21875 -85.875 19.21875 -81.6875 C 19.21875 -77.5 19.09375 -73.25 18.84375 -68.9375 C 18.601562 -64.625 18.484375 -60.375 18.484375 -56.1875 L 18.484375 -30.6875 C 18.484375 -26.488281 18.601562 -22.296875 18.84375 -18.109375 C 19.09375 -13.921875 19.21875 -9.734375 19.21875 -5.546875 C 19.21875 -4.316406 19.34375 -3.453125 19.59375 -2.953125 C 19.59375 -1.234375 20.082031 -0.25 21.0625 0 C 21.800781 0.25 22.476562 0.25 23.09375 0 C 23.71875 -0.25 24.398438 -0.375 25.140625 -0.375 L 56.1875 -0.375 C 57.164062 -0.375 58.148438 -0.375 59.140625 -0.375 C 60.128906 -0.375 61.113281 -0.492188 62.09375 -0.734375 C 64.3125 -0.734375 65.546875 -1.597656 65.796875 -3.328125 L 66.171875 -5.921875 C 66.171875 -10.347656 66.109375 -14.84375 65.984375 -19.40625 C 65.859375 -23.96875 65.796875 -28.460938 65.796875 -32.890625 L 65.796875 -59.875 C 65.796875 -64.3125 65.796875 -68.8125 65.796875 -73.375 C 65.796875 -77.9375 65.796875 -82.429688 65.796875 -86.859375 C 65.796875 -87.597656 65.859375 -88.273438 65.984375 -88.890625 C 66.109375 -89.515625 66.289062 -90.195312 66.53125 -90.9375 C 67.03125 -93.644531 68.382812 -95.125 70.59375 -95.375 C 72.570312 -95.863281 73.929688 -96.109375 74.671875 -96.109375 L 97.578125 -96.109375 C 101.523438 -96.109375 105.40625 -96.046875 109.21875 -95.921875 C 113.039062 -95.796875 116.800781 -95.734375 120.5 -95.734375 L 121.234375 -95.734375 C 122.472656 -95.734375 123.832031 -95.976562 125.3125 -96.46875 C 126.539062 -96.71875 127.398438 -97.457031 127.890625 -98.6875 C 128.140625 -99.1875 128.203125 -99.679688 128.078125 -100.171875 C 127.953125 -100.660156 127.890625 -101.03125 127.890625 -101.28125 L 127.890625 -136.03125 C 127.890625 -136.519531 127.828125 -137.070312 127.703125 -137.6875 C 127.585938 -138.300781 127.53125 -138.859375 127.53125 -139.359375 C 127.03125 -141.078125 126.289062 -142.0625 125.3125 -142.3125 C 124.320312 -142.800781 123.457031 -143.046875 122.71875 -143.046875 L 97.953125 -143.046875 C 94.015625 -143.046875 90.007812 -142.921875 85.9375 -142.671875 C 81.875 -142.429688 77.75 -142.3125 73.5625 -142.3125 C 73.0625 -142.3125 72.503906 -142.492188 71.890625 -142.859375 C 71.273438 -143.234375 70.722656 -143.546875 70.234375 -143.796875 C 68.503906 -144.035156 67.269531 -145.019531 66.53125 -146.75 C 66.289062 -147.488281 66.109375 -148.164062 65.984375 -148.78125 C 65.859375 -149.394531 65.796875 -150.070312 65.796875 -150.8125 C 65.796875 -155.25 65.734375 -159.625 65.609375 -163.9375 C 65.484375 -168.25 65.421875 -172.625 65.421875 -177.0625 L 65.421875 -203.296875 C 65.421875 -203.796875 65.421875 -204.414062 65.421875 -205.15625 C 65.421875 -205.894531 65.421875 -206.507812 65.421875 -207 C 65.671875 -208.96875 67.394531 -210.445312 70.59375 -211.4375 L 75.03125 -211.4375 C 78.726562 -211.4375 82.488281 -211.554688 86.3125 -211.796875 C 90.132812 -212.046875 93.890625 -212.171875 97.578125 -212.171875 C 101.523438 -212.171875 105.40625 -212.109375 109.21875 -211.984375 C 113.039062 -211.859375 116.800781 -211.796875 120.5 -211.796875 C 120.75 -211.796875 120.929688 -211.859375 121.046875 -211.984375 C 121.171875 -212.109375 121.234375 -212.171875 121.234375 -212.171875 C 121.972656 -211.921875 122.710938 -211.859375 123.453125 -211.984375 C 124.191406 -212.109375 124.8125 -212.171875 125.3125 -212.171875 C 127.03125 -212.660156 128.015625 -213.523438 128.265625 -214.765625 L 128.265625 -216.984375 C 128.265625 -222.890625 128.328125 -228.738281 128.453125 -234.53125 C 128.578125 -240.320312 128.640625 -246.175781 128.640625 -252.09375 C 128.640625 -252.832031 128.390625 -253.941406 127.890625 -255.421875 C 127.890625 -256.898438 127.03125 -257.882812 125.3125 -258.375 C 124.570312 -258.625 123.460938 -258.75 121.984375 -258.75 L 97.953125 -258.75 C 94.015625 -258.75 90.070312 -258.6875 86.125 -258.5625 C 82.1875 -258.4375 78.242188 -258.375 74.296875 -258.375 C 70.359375 -258.375 66.414062 -258.5 62.46875 -258.75 C 58.53125 -259 54.460938 -259.125 50.265625 -259.125 C 46.328125 -259.125 42.382812 -259 38.4375 -258.75 C 34.5 -258.5 30.4375 -258.375 26.25 -258.375 C 26 -258.375 25.6875 -258.4375 25.3125 -258.5625 C 24.945312 -258.6875 24.519531 -258.625 24.03125 -258.375 C 23.78125 -258.375 23.347656 -258.5 22.734375 -258.75 C 22.117188 -259 21.5625 -259 21.0625 -258.75 C 20.570312 -258.5 20.203125 -258.066406 19.953125 -257.453125 C 19.710938 -256.835938 19.46875 -256.285156 19.21875 -255.796875 C 19.21875 -254.804688 19.097656 -253.941406 18.859375 -253.203125 C 18.859375 -252.953125 18.796875 -252.640625 18.671875 -252.265625 C 18.546875 -251.898438 18.484375 -251.472656 18.484375 -250.984375 C 18.484375 -247.285156 18.546875 -243.648438 18.671875 -240.078125 C 18.796875 -236.503906 18.859375 -232.992188 18.859375 -229.546875 C 19.097656 -225.847656 19.15625 -222.210938 19.03125 -218.640625 C 18.914062 -215.066406 18.976562 -211.554688 19.21875 -208.109375 C 19.21875 -203.921875 19.09375 -199.671875 18.84375 -195.359375 C 18.601562 -191.046875 18.484375 -186.796875 18.484375 -182.609375 C 18.484375 -178.660156 18.601562 -174.53125 18.84375 -170.21875 C 19.09375 -165.90625 19.21875 -161.65625 19.21875 -157.46875 C 19.21875 -153.28125 19.28125 -149.085938 19.40625 -144.890625 C 19.53125 -140.703125 19.59375 -136.515625 19.59375 -132.328125 C 19.59375 -128.140625 19.46875 -123.890625 19.21875 -119.578125 C 18.976562 -115.265625 18.859375 -111.015625 18.859375 -106.828125 Z M 18.859375 -106.828125 "/></g></g></g><g fill="#006ffd" fill-opacity="1"><g transform="translate(711.493425, 552.749992)"><g><path d="M 166.34375 -129.375 L 166.34375 -154.140625 C 166.34375 -158.328125 166.398438 -162.515625 166.515625 -166.703125 C 166.640625 -170.890625 166.703125 -174.957031 166.703125 -178.90625 C 166.703125 -183.09375 166.765625 -187.28125 166.890625 -191.46875 C 167.015625 -195.65625 167.078125 -199.722656 167.078125 -203.671875 L 167.078125 -206.265625 C 167.078125 -209.710938 167.078125 -213.097656 167.078125 -216.421875 C 167.078125 -219.753906 167.078125 -223.144531 167.078125 -226.59375 C 167.078125 -230.289062 167.140625 -233.984375 167.265625 -237.671875 C 167.390625 -241.367188 166.957031 -245.066406 165.96875 -248.765625 C 164.976562 -252.953125 162.390625 -255.660156 158.203125 -256.890625 C 154.015625 -258.128906 150.566406 -258.875 147.859375 -259.125 L 128.265625 -259.125 C 127.035156 -259.125 125.800781 -259.0625 124.5625 -258.9375 C 123.332031 -258.8125 122.101562 -258.625 120.875 -258.375 C 119.882812 -258.375 118.894531 -258.375 117.90625 -258.375 C 116.925781 -258.375 115.941406 -258.253906 114.953125 -258.015625 C 114.210938 -258.015625 113.410156 -257.953125 112.546875 -257.828125 C 111.691406 -257.703125 110.894531 -257.640625 110.15625 -257.640625 C 109.164062 -257.390625 108.175781 -257.328125 107.1875 -257.453125 C 106.207031 -257.578125 105.101562 -257.515625 103.875 -257.265625 C 102.394531 -257.023438 100.851562 -256.65625 99.25 -256.15625 C 97.644531 -255.664062 95.984375 -255.175781 94.265625 -254.6875 C 93.273438 -254.4375 92.101562 -254.1875 90.75 -253.9375 C 89.394531 -253.695312 88.097656 -253.328125 86.859375 -252.828125 C 86.117188 -252.585938 85.378906 -252.40625 84.640625 -252.28125 C 83.898438 -252.15625 83.164062 -251.847656 82.4375 -251.359375 C 80.457031 -250.617188 78.359375 -249.632812 76.140625 -248.40625 C 75.648438 -248.15625 75.15625 -247.90625 74.65625 -247.65625 C 74.164062 -247.414062 73.675781 -247.171875 73.1875 -246.921875 C 72.9375 -246.671875 72.320312 -246.546875 71.34375 -246.546875 L 68.015625 -244.703125 C 67.023438 -244.210938 66.035156 -243.472656 65.046875 -242.484375 C 64.066406 -241.492188 62.960938 -240.628906 61.734375 -239.890625 C 60.992188 -239.398438 60.253906 -238.96875 59.515625 -238.59375 C 58.773438 -238.226562 58.035156 -237.800781 57.296875 -237.3125 C 57.046875 -237.0625 56.796875 -236.75 56.546875 -236.375 C 56.304688 -236.007812 56.0625 -235.582031 55.8125 -235.09375 C 55.320312 -234.84375 54.707031 -234.472656 53.96875 -233.984375 C 53.226562 -233.492188 52.613281 -233 52.125 -232.5 C 49.65625 -230.28125 47.3125 -227.941406 45.09375 -225.484375 L 41.40625 -221.046875 C 40.90625 -220.554688 40.46875 -219.941406 40.09375 -219.203125 C 39.726562 -218.460938 39.300781 -217.722656 38.8125 -216.984375 C 38.5625 -216.484375 38.191406 -215.988281 37.703125 -215.5 C 37.210938 -215.007812 36.71875 -214.515625 36.21875 -214.015625 C 35.976562 -213.523438 35.734375 -212.910156 35.484375 -212.171875 C 35.234375 -211.429688 34.863281 -210.691406 34.375 -209.953125 C 33.882812 -208.972656 33.332031 -208.050781 32.71875 -207.1875 C 32.101562 -206.320312 31.546875 -205.273438 31.046875 -204.046875 C 30.804688 -203.304688 30.625 -202.566406 30.5 -201.828125 C 30.375 -201.085938 30.066406 -200.347656 29.578125 -199.609375 C 29.078125 -198.367188 28.582031 -197.070312 28.09375 -195.71875 C 27.601562 -194.363281 27.109375 -193.070312 26.609375 -191.84375 C 25.628906 -189.375 24.769531 -186.539062 24.03125 -183.34375 C 23.78125 -182.113281 23.40625 -180.816406 22.90625 -179.453125 C 22.414062 -178.097656 22.050781 -176.804688 21.8125 -175.578125 C 21.3125 -173.609375 20.9375 -171.515625 20.6875 -169.296875 C 20.445312 -167.078125 20.203125 -164.859375 19.953125 -162.640625 C 19.953125 -161.648438 19.890625 -160.660156 19.765625 -159.671875 C 19.648438 -158.691406 19.59375 -157.710938 19.59375 -156.734375 C 19.34375 -155.742188 19.21875 -154.816406 19.21875 -153.953125 C 19.21875 -153.085938 19.097656 -152.164062 18.859375 -151.1875 L 18.859375 -144.53125 C 18.859375 -139.84375 18.859375 -135.21875 18.859375 -130.65625 C 18.859375 -126.101562 18.859375 -121.609375 18.859375 -117.171875 C 18.859375 -112.492188 18.914062 -107.875 19.03125 -103.3125 C 19.15625 -98.75 19.21875 -94.128906 19.21875 -89.453125 C 19.21875 -84.773438 19.09375 -80.15625 18.84375 -75.59375 C 18.601562 -71.03125 18.484375 -66.410156 18.484375 -61.734375 L 18.484375 -34 C 18.484375 -29.320312 18.484375 -24.703125 18.484375 -20.140625 C 18.484375 -15.585938 18.484375 -10.96875 18.484375 -6.28125 C 18.484375 -5.539062 18.726562 -4.429688 19.21875 -2.953125 C 19.21875 -1.972656 19.957031 -1.234375 21.4375 -0.734375 C 22.175781 -0.492188 23.285156 -0.375 24.765625 -0.375 C 30.921875 -0.375 37.019531 -0.3125 43.0625 -0.1875 C 49.101562 -0.0625 55.203125 0 61.359375 0 C 62.097656 0 62.835938 0.0625 63.578125 0.1875 C 64.316406 0.3125 65.054688 0.375 65.796875 0.375 C 68.015625 -0.125 69.25 -1.234375 69.5 -2.953125 C 69.5 -3.453125 69.4375 -3.882812 69.3125 -4.25 C 69.1875 -4.625 69.125 -4.929688 69.125 -5.171875 C 69.125 -10.835938 69.0625 -16.566406 68.9375 -22.359375 C 68.8125 -28.148438 68.75 -33.878906 68.75 -39.546875 C 68.75 -41.273438 68.8125 -43.0625 68.9375 -44.90625 C 69.0625 -46.757812 69.125 -48.546875 69.125 -50.265625 C 69.125 -51.503906 69.25 -52.367188 69.5 -52.859375 C 69.5 -54.085938 70.113281 -54.703125 71.34375 -54.703125 C 71.832031 -54.953125 72.570312 -55.078125 73.5625 -55.078125 C 79.96875 -55.078125 86.3125 -54.953125 92.59375 -54.703125 C 98.875 -54.460938 105.21875 -54.34375 111.625 -54.34375 L 113.84375 -54.34375 C 114.34375 -54.09375 114.773438 -53.84375 115.140625 -53.59375 C 115.515625 -53.351562 115.820312 -52.984375 116.0625 -52.484375 C 116.0625 -52.242188 116.125 -52 116.25 -51.75 C 116.375 -51.5 116.4375 -51.128906 116.4375 -50.640625 C 116.4375 -46.941406 116.3125 -43.304688 116.0625 -39.734375 C 115.820312 -36.160156 115.703125 -32.523438 115.703125 -28.828125 C 115.703125 -25.128906 115.640625 -21.492188 115.515625 -17.921875 C 115.390625 -14.347656 115.328125 -10.710938 115.328125 -7.015625 C 115.328125 -6.523438 115.445312 -5.910156 115.6875 -5.171875 C 115.9375 -4.429688 116.1875 -3.816406 116.4375 -3.328125 C 116.4375 -1.597656 117.050781 -0.488281 118.28125 0 C 118.78125 0.25 119.394531 0.25 120.125 0 C 120.863281 -0.25 121.484375 -0.375 121.984375 -0.375 C 127.648438 -0.375 133.191406 -0.25 138.609375 0 C 144.035156 0.25 149.457031 0.375 154.875 0.375 C 156.113281 0.375 157.46875 0.375 158.9375 0.375 C 160.414062 0.375 161.773438 0.25 163.015625 0 L 164.484375 0 C 166.210938 -0.488281 167.078125 -1.472656 167.078125 -2.953125 C 167.078125 -3.453125 166.953125 -4.007812 166.703125 -4.625 C 166.460938 -5.238281 166.34375 -5.671875 166.34375 -5.921875 C 166.34375 -10.109375 166.398438 -14.296875 166.515625 -18.484375 C 166.640625 -22.671875 166.703125 -26.738281 166.703125 -30.6875 C 166.703125 -34.875 166.765625 -39.0625 166.890625 -43.25 C 167.015625 -47.4375 167.078125 -51.503906 167.078125 -55.453125 L 167.078125 -80.21875 C 167.078125 -84.40625 167.015625 -88.53125 166.890625 -92.59375 C 166.765625 -96.65625 166.703125 -100.660156 166.703125 -104.609375 C 166.703125 -108.796875 166.640625 -112.984375 166.515625 -117.171875 C 166.398438 -121.359375 166.34375 -125.425781 166.34375 -129.375 Z M 116.4375 -156.359375 L 116.4375 -132.703125 C 116.4375 -128.753906 116.3125 -124.867188 116.0625 -121.046875 C 115.820312 -117.234375 115.703125 -113.234375 115.703125 -109.046875 L 115.328125 -107.5625 C 115.078125 -106.582031 114.582031 -105.96875 113.84375 -105.71875 C 113.601562 -105.71875 113.296875 -105.65625 112.921875 -105.53125 C 112.554688 -105.40625 112.125 -105.34375 111.625 -105.34375 C 105.46875 -105.101562 99.1875 -104.984375 92.78125 -104.984375 C 86.375 -104.984375 79.96875 -104.984375 73.5625 -104.984375 C 72.570312 -104.984375 71.832031 -105.101562 71.34375 -105.34375 C 70.113281 -105.34375 69.5 -105.960938 69.5 -107.203125 C 69 -108.179688 68.75 -109.039062 68.75 -109.78125 L 68.75 -136.03125 C 68.75 -138 68.875 -139.90625 69.125 -141.75 C 69.375 -143.601562 69.5 -145.390625 69.5 -147.109375 L 69.5 -153.03125 C 69.738281 -154.019531 69.796875 -154.941406 69.671875 -155.796875 C 69.554688 -156.660156 69.5 -157.585938 69.5 -158.578125 C 69.738281 -160.546875 69.976562 -162.390625 70.21875 -164.109375 C 70.46875 -165.835938 70.71875 -167.566406 70.96875 -169.296875 C 71.457031 -170.773438 71.945312 -172.253906 72.4375 -173.734375 C 72.9375 -175.210938 73.429688 -176.691406 73.921875 -178.171875 C 74.421875 -179.398438 74.914062 -180.382812 75.40625 -181.125 C 75.894531 -181.863281 76.390625 -182.726562 76.890625 -183.71875 C 77.378906 -184.945312 77.929688 -186.300781 78.546875 -187.78125 C 79.160156 -189.257812 79.835938 -190.488281 80.578125 -191.46875 C 81.316406 -192.457031 82.117188 -193.320312 82.984375 -194.0625 C 83.847656 -194.800781 84.769531 -195.539062 85.75 -196.28125 C 86.988281 -197.507812 88.160156 -198.613281 89.265625 -199.59375 C 90.378906 -200.582031 91.675781 -201.445312 93.15625 -202.1875 C 93.644531 -202.4375 94.257812 -202.625 95 -202.75 C 95.738281 -202.875 96.351562 -203.054688 96.84375 -203.296875 C 97.332031 -203.546875 97.945312 -203.789062 98.6875 -204.03125 C 99.425781 -204.28125 100.164062 -204.53125 100.90625 -204.78125 C 101.894531 -205.03125 102.878906 -205.273438 103.859375 -205.515625 C 104.847656 -205.765625 105.835938 -206.015625 106.828125 -206.265625 C 108.304688 -206.265625 109.535156 -206.382812 110.515625 -206.625 C 111.015625 -206.625 111.445312 -206.75 111.8125 -207 C 112.1875 -207.25 112.617188 -207.375 113.109375 -207.375 C 113.847656 -207.375 114.585938 -207.003906 115.328125 -206.265625 C 115.578125 -205.765625 115.703125 -205.023438 115.703125 -204.046875 L 115.703125 -202.9375 C 115.703125 -198.988281 115.757812 -195.101562 115.875 -191.28125 C 116 -187.46875 116.0625 -183.585938 116.0625 -179.640625 C 116.0625 -175.703125 116.125 -171.820312 116.25 -168 C 116.375 -164.175781 116.4375 -160.296875 116.4375 -156.359375 Z M 116.4375 -156.359375 "/></g></g></g><g fill="#006ffd" fill-opacity="1"><g transform="translate(877.093912, 552.749992)"><g><path d="M 24.390625 -129.75 C 24.390625 -124.8125 24.453125 -119.816406 24.578125 -114.765625 C 24.703125 -109.722656 24.765625 -104.613281 24.765625 -99.4375 C 24.765625 -94.507812 24.703125 -89.519531 24.578125 -84.46875 C 24.453125 -79.414062 24.390625 -74.425781 24.390625 -69.5 C 24.390625 -64.5625 24.453125 -59.566406 24.578125 -54.515625 C 24.703125 -49.460938 24.765625 -44.351562 24.765625 -39.1875 C 24.765625 -34.257812 24.640625 -29.269531 24.390625 -24.21875 C 24.148438 -19.164062 24.03125 -14.171875 24.03125 -9.234375 C 24.03125 -8.742188 24.148438 -8.128906 24.390625 -7.390625 C 24.640625 -6.648438 24.890625 -6.035156 25.140625 -5.546875 C 25.140625 -4.316406 25.382812 -3.578125 25.875 -3.328125 C 27.101562 -1.597656 28.335938 -0.734375 29.578125 -0.734375 C 31.546875 -0.242188 32.898438 0 33.640625 0 C 39.304688 0 44.972656 -0.0625 50.640625 -0.1875 C 56.304688 -0.3125 61.851562 -0.375 67.28125 -0.375 C 72.945312 -0.375 78.550781 -0.429688 84.09375 -0.546875 C 89.632812 -0.671875 95.117188 -0.734375 100.546875 -0.734375 C 101.285156 -0.734375 102.023438 -0.671875 102.765625 -0.546875 C 103.503906 -0.429688 104.363281 -0.492188 105.34375 -0.734375 C 108.300781 -1.472656 110.023438 -2.953125 110.515625 -5.171875 C 110.765625 -5.910156 110.828125 -6.710938 110.703125 -7.578125 C 110.578125 -8.441406 110.515625 -9.242188 110.515625 -9.984375 L 110.515625 -31.421875 C 110.515625 -32.648438 110.640625 -33.753906 110.890625 -34.734375 C 111.140625 -35.722656 111.140625 -36.710938 110.890625 -37.703125 C 110.890625 -38.191406 110.890625 -38.804688 110.890625 -39.546875 C 110.890625 -40.285156 110.644531 -40.90625 110.15625 -41.40625 C 109.90625 -41.894531 109.472656 -42.320312 108.859375 -42.6875 C 108.242188 -43.0625 107.566406 -43.375 106.828125 -43.625 C 105.835938 -44.113281 104.234375 -44.359375 102.015625 -44.359375 C 99.554688 -44.359375 97.09375 -44.476562 94.625 -44.71875 C 92.164062 -44.96875 89.703125 -45.09375 87.234375 -45.09375 C 86.984375 -45.09375 86.671875 -45.15625 86.296875 -45.28125 C 85.929688 -45.40625 85.503906 -45.46875 85.015625 -45.46875 C 84.765625 -45.46875 84.578125 -45.34375 84.453125 -45.09375 C 84.335938 -44.84375 84.15625 -44.71875 83.90625 -44.71875 C 83.65625 -44.476562 83.347656 -44.476562 82.984375 -44.71875 C 82.617188 -44.96875 82.3125 -45.09375 82.0625 -45.09375 L 81.328125 -45.09375 C 80.335938 -45.09375 79.347656 -45.15625 78.359375 -45.28125 C 77.378906 -45.40625 76.269531 -45.585938 75.03125 -45.828125 C 74.050781 -46.328125 73.25 -46.945312 72.625 -47.6875 C 72.007812 -48.425781 71.457031 -49.285156 70.96875 -50.265625 C 70.226562 -51.503906 69.734375 -52.738281 69.484375 -53.96875 C 69.242188 -55.195312 69 -56.425781 68.75 -57.65625 C 68.75 -58.15625 68.6875 -58.710938 68.5625 -59.328125 C 68.445312 -59.941406 68.390625 -60.492188 68.390625 -60.984375 L 68.390625 -64.3125 C 68.390625 -68.75 68.507812 -73.1875 68.75 -77.625 C 69 -82.0625 69.125 -86.5 69.125 -90.9375 C 69.125 -95.363281 69 -99.796875 68.75 -104.234375 C 68.507812 -108.671875 68.390625 -112.984375 68.390625 -117.171875 C 68.390625 -121.609375 68.445312 -126.046875 68.5625 -130.484375 C 68.6875 -134.921875 68.75 -139.359375 68.75 -143.796875 L 68.75 -170.40625 C 68.75 -174.84375 68.8125 -179.273438 68.9375 -183.703125 C 69.0625 -188.140625 69.125 -192.578125 69.125 -197.015625 C 69.125 -201.453125 69.0625 -205.890625 68.9375 -210.328125 C 68.8125 -214.765625 68.75 -219.195312 68.75 -223.625 L 68.75 -249.875 C 68.75 -250.613281 68.625 -251.289062 68.375 -251.90625 C 68.132812 -252.519531 67.890625 -253.078125 67.640625 -253.578125 C 67.640625 -254.066406 67.703125 -254.492188 67.828125 -254.859375 C 67.953125 -255.234375 67.890625 -255.546875 67.640625 -255.796875 C 67.398438 -256.285156 66.910156 -256.710938 66.171875 -257.078125 C 65.429688 -257.453125 64.8125 -257.765625 64.3125 -258.015625 C 63.570312 -258.253906 62.832031 -258.4375 62.09375 -258.5625 C 61.351562 -258.6875 60.613281 -258.75 59.875 -258.75 C 55.9375 -258.75 51.929688 -258.6875 47.859375 -258.5625 C 43.796875 -258.4375 39.671875 -258.375 35.484375 -258.375 C 34.742188 -258.375 34.003906 -258.4375 33.265625 -258.5625 C 32.523438 -258.6875 31.785156 -258.75 31.046875 -258.75 C 30.554688 -258.5 29.695312 -258.375 28.46875 -258.375 C 27.226562 -257.632812 26.117188 -256.40625 25.140625 -254.6875 C 24.890625 -253.945312 24.765625 -253.207031 24.765625 -252.46875 C 24.765625 -251.726562 24.765625 -250.988281 24.765625 -250.25 C 24.765625 -245.320312 24.703125 -240.269531 24.578125 -235.09375 C 24.453125 -229.914062 24.390625 -224.863281 24.390625 -219.9375 C 24.390625 -215.007812 24.328125 -210.019531 24.203125 -204.96875 C 24.085938 -199.914062 24.03125 -194.925781 24.03125 -190 C 24.03125 -185.070312 24.148438 -180.082031 24.390625 -175.03125 C 24.640625 -169.976562 24.765625 -164.863281 24.765625 -159.6875 C 24.765625 -154.757812 24.703125 -149.769531 24.578125 -144.71875 C 24.453125 -139.664062 24.390625 -134.675781 24.390625 -129.75 Z M 24.390625 -129.75 "/></g></g></g><g fill="#006ffd" fill-opacity="1"><g transform="translate(980.963826, 552.749992)"><g><path d="M 166.34375 -129.375 L 166.34375 -154.140625 C 166.34375 -158.328125 166.398438 -162.515625 166.515625 -166.703125 C 166.640625 -170.890625 166.703125 -174.957031 166.703125 -178.90625 C 166.703125 -183.09375 166.765625 -187.28125 166.890625 -191.46875 C 167.015625 -195.65625 167.078125 -199.722656 167.078125 -203.671875 L 167.078125 -206.265625 C 167.078125 -209.710938 167.078125 -213.097656 167.078125 -216.421875 C 167.078125 -219.753906 167.078125 -223.144531 167.078125 -226.59375 C 167.078125 -230.289062 167.140625 -233.984375 167.265625 -237.671875 C 167.390625 -241.367188 166.957031 -245.066406 165.96875 -248.765625 C 164.976562 -252.953125 162.390625 -255.660156 158.203125 -256.890625 C 154.015625 -258.128906 150.566406 -258.875 147.859375 -259.125 L 128.265625 -259.125 C 127.035156 -259.125 125.800781 -259.0625 124.5625 -258.9375 C 123.332031 -258.8125 122.101562 -258.625 120.875 -258.375 C 119.882812 -258.375 118.894531 -258.375 117.90625 -258.375 C 116.925781 -258.375 115.941406 -258.253906 114.953125 -258.015625 C 114.210938 -258.015625 113.410156 -257.953125 112.546875 -257.828125 C 111.691406 -257.703125 110.894531 -257.640625 110.15625 -257.640625 C 109.164062 -257.390625 108.175781 -257.328125 107.1875 -257.453125 C 106.207031 -257.578125 105.101562 -257.515625 103.875 -257.265625 C 102.394531 -257.023438 100.851562 -256.65625 99.25 -256.15625 C 97.644531 -255.664062 95.984375 -255.175781 94.265625 -254.6875 C 93.273438 -254.4375 92.101562 -254.1875 90.75 -253.9375 C 89.394531 -253.695312 88.097656 -253.328125 86.859375 -252.828125 C 86.117188 -252.585938 85.378906 -252.40625 84.640625 -252.28125 C 83.898438 -252.15625 83.164062 -251.847656 82.4375 -251.359375 C 80.457031 -250.617188 78.359375 -249.632812 76.140625 -248.40625 C 75.648438 -248.15625 75.15625 -247.90625 74.65625 -247.65625 C 74.164062 -247.414062 73.675781 -247.171875 73.1875 -246.921875 C 72.9375 -246.671875 72.320312 -246.546875 71.34375 -246.546875 L 68.015625 -244.703125 C 67.023438 -244.210938 66.035156 -243.472656 65.046875 -242.484375 C 64.066406 -241.492188 62.960938 -240.628906 61.734375 -239.890625 C 60.992188 -239.398438 60.253906 -238.96875 59.515625 -238.59375 C 58.773438 -238.226562 58.035156 -237.800781 57.296875 -237.3125 C 57.046875 -237.0625 56.796875 -236.75 56.546875 -236.375 C 56.304688 -236.007812 56.0625 -235.582031 55.8125 -235.09375 C 55.320312 -234.84375 54.707031 -234.472656 53.96875 -233.984375 C 53.226562 -233.492188 52.613281 -233 52.125 -232.5 C 49.65625 -230.28125 47.3125 -227.941406 45.09375 -225.484375 L 41.40625 -221.046875 C 40.90625 -220.554688 40.46875 -219.941406 40.09375 -219.203125 C 39.726562 -218.460938 39.300781 -217.722656 38.8125 -216.984375 C 38.5625 -216.484375 38.191406 -215.988281 37.703125 -215.5 C 37.210938 -215.007812 36.71875 -214.515625 36.21875 -214.015625 C 35.976562 -213.523438 35.734375 -212.910156 35.484375 -212.171875 C 35.234375 -211.429688 34.863281 -210.691406 34.375 -209.953125 C 33.882812 -208.972656 33.332031 -208.050781 32.71875 -207.1875 C 32.101562 -206.320312 31.546875 -205.273438 31.046875 -204.046875 C 30.804688 -203.304688 30.625 -202.566406 30.5 -201.828125 C 30.375 -201.085938 30.066406 -200.347656 29.578125 -199.609375 C 29.078125 -198.367188 28.582031 -197.070312 28.09375 -195.71875 C 27.601562 -194.363281 27.109375 -193.070312 26.609375 -191.84375 C 25.628906 -189.375 24.769531 -186.539062 24.03125 -183.34375 C 23.78125 -182.113281 23.40625 -180.816406 22.90625 -179.453125 C 22.414062 -178.097656 22.050781 -176.804688 21.8125 -175.578125 C 21.3125 -173.609375 20.9375 -171.515625 20.6875 -169.296875 C 20.445312 -167.078125 20.203125 -164.859375 19.953125 -162.640625 C 19.953125 -161.648438 19.890625 -160.660156 19.765625 -159.671875 C 19.648438 -158.691406 19.59375 -157.710938 19.59375 -156.734375 C 19.34375 -155.742188 19.21875 -154.816406 19.21875 -153.953125 C 19.21875 -153.085938 19.097656 -152.164062 18.859375 -151.1875 L 18.859375 -144.53125 C 18.859375 -139.84375 18.859375 -135.21875 18.859375 -130.65625 C 18.859375 -126.101562 18.859375 -121.609375 18.859375 -117.171875 C 18.859375 -112.492188 18.914062 -107.875 19.03125 -103.3125 C 19.15625 -98.75 19.21875 -94.128906 19.21875 -89.453125 C 19.21875 -84.773438 19.09375 -80.15625 18.84375 -75.59375 C 18.601562 -71.03125 18.484375 -66.410156 18.484375 -61.734375 L 18.484375 -34 C 18.484375 -29.320312 18.484375 -24.703125 18.484375 -20.140625 C 18.484375 -15.585938 18.484375 -10.96875 18.484375 -6.28125 C 18.484375 -5.539062 18.726562 -4.429688 19.21875 -2.953125 C 19.21875 -1.972656 19.957031 -1.234375 21.4375 -0.734375 C 22.175781 -0.492188 23.285156 -0.375 24.765625 -0.375 C 30.921875 -0.375 37.019531 -0.3125 43.0625 -0.1875 C 49.101562 -0.0625 55.203125 0 61.359375 0 C 62.097656 0 62.835938 0.0625 63.578125 0.1875 C 64.316406 0.3125 65.054688 0.375 65.796875 0.375 C 68.015625 -0.125 69.25 -1.234375 69.5 -2.953125 C 69.5 -3.453125 69.4375 -3.882812 69.3125 -4.25 C 69.1875 -4.625 69.125 -4.929688 69.125 -5.171875 C 69.125 -10.835938 69.0625 -16.566406 68.9375 -22.359375 C 68.8125 -28.148438 68.75 -33.878906 68.75 -39.546875 C 68.75 -41.273438 68.8125 -43.0625 68.9375 -44.90625 C 69.0625 -46.757812 69.125 -48.546875 69.125 -50.265625 C 69.125 -51.503906 69.25 -52.367188 69.5 -52.859375 C 69.5 -54.085938 70.113281 -54.703125 71.34375 -54.703125 C 71.832031 -54.953125 72.570312 -55.078125 73.5625 -55.078125 C 79.96875 -55.078125 86.3125 -54.953125 92.59375 -54.703125 C 98.875 -54.460938 105.21875 -54.34375 111.625 -54.34375 L 113.84375 -54.34375 C 114.34375 -54.09375 114.773438 -53.84375 115.140625 -53.59375 C 115.515625 -53.351562 115.820312 -52.984375 116.0625 -52.484375 C 116.0625 -52.242188 116.125 -52 116.25 -51.75 C 116.375 -51.5 116.4375 -51.128906 116.4375 -50.640625 C 116.4375 -46.941406 116.3125 -43.304688 116.0625 -39.734375 C 115.820312 -36.160156 115.703125 -32.523438 115.703125 -28.828125 C 115.703125 -25.128906 115.640625 -21.492188 115.515625 -17.921875 C 115.390625 -14.347656 115.328125 -10.710938 115.328125 -7.015625 C 115.328125 -6.523438 115.445312 -5.910156 115.6875 -5.171875 C 115.9375 -4.429688 116.1875 -3.816406 116.4375 -3.328125 C 116.4375 -1.597656 117.050781 -0.488281 118.28125 0 C 118.78125 0.25 119.394531 0.25 120.125 0 C 120.863281 -0.25 121.484375 -0.375 121.984375 -0.375 C 127.648438 -0.375 133.191406 -0.25 138.609375 0 C 144.035156 0.25 149.457031 0.375 154.875 0.375 C 156.113281 0.375 157.46875 0.375 158.9375 0.375 C 160.414062 0.375 161.773438 0.25 163.015625 0 L 164.484375 0 C 166.210938 -0.488281 167.078125 -1.472656 167.078125 -2.953125 C 167.078125 -3.453125 166.953125 -4.007812 166.703125 -4.625 C 166.460938 -5.238281 166.34375 -5.671875 166.34375 -5.921875 C 166.34375 -10.109375 166.398438 -14.296875 166.515625 -18.484375 C 166.640625 -22.671875 166.703125 -26.738281 166.703125 -30.6875 C 166.703125 -34.875 166.765625 -39.0625 166.890625 -43.25 C 167.015625 -47.4375 167.078125 -51.503906 167.078125 -55.453125 L 167.078125 -80.21875 C 167.078125 -84.40625 167.015625 -88.53125 166.890625 -92.59375 C 166.765625 -96.65625 166.703125 -100.660156 166.703125 -104.609375 C 166.703125 -108.796875 166.640625 -112.984375 166.515625 -117.171875 C 166.398438 -121.359375 166.34375 -125.425781 166.34375 -129.375 Z M 116.4375 -156.359375 L 116.4375 -132.703125 C 116.4375 -128.753906 116.3125 -124.867188 116.0625 -121.046875 C 115.820312 -117.234375 115.703125 -113.234375 115.703125 -109.046875 L 115.328125 -107.5625 C 115.078125 -106.582031 114.582031 -105.96875 113.84375 -105.71875 C 113.601562 -105.71875 113.296875 -105.65625 112.921875 -105.53125 C 112.554688 -105.40625 112.125 -105.34375 111.625 -105.34375 C 105.46875 -105.101562 99.1875 -104.984375 92.78125 -104.984375 C 86.375 -104.984375 79.96875 -104.984375 73.5625 -104.984375 C 72.570312 -104.984375 71.832031 -105.101562 71.34375 -105.34375 C 70.113281 -105.34375 69.5 -105.960938 69.5 -107.203125 C 69 -108.179688 68.75 -109.039062 68.75 -109.78125 L 68.75 -136.03125 C 68.75 -138 68.875 -139.90625 69.125 -141.75 C 69.375 -143.601562 69.5 -145.390625 69.5 -147.109375 L 69.5 -153.03125 C 69.738281 -154.019531 69.796875 -154.941406 69.671875 -155.796875 C 69.554688 -156.660156 69.5 -157.585938 69.5 -158.578125 C 69.738281 -160.546875 69.976562 -162.390625 70.21875 -164.109375 C 70.46875 -165.835938 70.71875 -167.566406 70.96875 -169.296875 C 71.457031 -170.773438 71.945312 -172.253906 72.4375 -173.734375 C 72.9375 -175.210938 73.429688 -176.691406 73.921875 -178.171875 C 74.421875 -179.398438 74.914062 -180.382812 75.40625 -181.125 C 75.894531 -181.863281 76.390625 -182.726562 76.890625 -183.71875 C 77.378906 -184.945312 77.929688 -186.300781 78.546875 -187.78125 C 79.160156 -189.257812 79.835938 -190.488281 80.578125 -191.46875 C 81.316406 -192.457031 82.117188 -193.320312 82.984375 -194.0625 C 83.847656 -194.800781 84.769531 -195.539062 85.75 -196.28125 C 86.988281 -197.507812 88.160156 -198.613281 89.265625 -199.59375 C 90.378906 -200.582031 91.675781 -201.445312 93.15625 -202.1875 C 93.644531 -202.4375 94.257812 -202.625 95 -202.75 C 95.738281 -202.875 96.351562 -203.054688 96.84375 -203.296875 C 97.332031 -203.546875 97.945312 -203.789062 98.6875 -204.03125 C 99.425781 -204.28125 100.164062 -204.53125 100.90625 -204.78125 C 101.894531 -205.03125 102.878906 -205.273438 103.859375 -205.515625 C 104.847656 -205.765625 105.835938 -206.015625 106.828125 -206.265625 C 108.304688 -206.265625 109.535156 -206.382812 110.515625 -206.625 C 111.015625 -206.625 111.445312 -206.75 111.8125 -207 C 112.1875 -207.25 112.617188 -207.375 113.109375 -207.375 C 113.847656 -207.375 114.585938 -207.003906 115.328125 -206.265625 C 115.578125 -205.765625 115.703125 -205.023438 115.703125 -204.046875 L 115.703125 -202.9375 C 115.703125 -198.988281 115.757812 -195.101562 115.875 -191.28125 C 116 -187.46875 116.0625 -183.585938 116.0625 -179.640625 C 116.0625 -175.703125 116.125 -171.820312 116.25 -168 C 116.375 -164.175781 116.4375 -160.296875 116.4375 -156.359375 Z M 116.4375 -156.359375 "/></g></g></g><g fill="#006ffd" fill-opacity="1"><g transform="translate(1146.564312, 552.749992)"><g><path d="M 49.90625 -270.203125 C 51.132812 -270.203125 52.117188 -270.570312 52.859375 -271.3125 C 53.597656 -272.050781 54.398438 -272.726562 55.265625 -273.34375 C 56.128906 -273.957031 56.925781 -274.515625 57.65625 -275.015625 C 58.15625 -275.503906 58.648438 -275.992188 59.140625 -276.484375 C 59.628906 -276.984375 60.125 -277.351562 60.625 -277.59375 C 61.113281 -278.332031 61.726562 -279.007812 62.46875 -279.625 C 63.207031 -280.25 63.945312 -280.804688 64.6875 -281.296875 C 65.175781 -281.785156 65.664062 -282.273438 66.15625 -282.765625 C 66.65625 -283.265625 67.03125 -283.757812 67.28125 -284.25 C 68.019531 -284.75 68.753906 -285.304688 69.484375 -285.921875 C 70.222656 -286.535156 70.84375 -287.085938 71.34375 -287.578125 C 71.832031 -288.066406 72.320312 -288.617188 72.8125 -289.234375 C 73.3125 -289.859375 73.804688 -290.289062 74.296875 -290.53125 C 75.285156 -291.269531 76.640625 -292.503906 78.359375 -294.234375 C 78.859375 -294.722656 79.351562 -295.210938 79.84375 -295.703125 C 80.332031 -296.203125 80.828125 -296.578125 81.328125 -296.828125 L 85.015625 -300.140625 C 85.265625 -300.390625 85.445312 -300.578125 85.5625 -300.703125 C 85.6875 -300.828125 85.875 -301.007812 86.125 -301.25 L 88.71875 -303.46875 C 89.695312 -304.457031 90.554688 -305.195312 91.296875 -305.6875 C 91.796875 -306.1875 92.289062 -306.679688 92.78125 -307.171875 C 93.269531 -307.660156 93.765625 -308.15625 94.265625 -308.65625 C 95.242188 -309.394531 96.101562 -310.253906 96.84375 -311.234375 L 98.328125 -312.34375 C 99.304688 -313.332031 100.046875 -314.195312 100.546875 -314.9375 C 101.285156 -315.914062 101.285156 -316.898438 100.546875 -317.890625 L 98.328125 -320.109375 C 97.335938 -320.597656 96.226562 -321.210938 95 -321.953125 C 93.769531 -322.691406 92.660156 -323.3125 91.671875 -323.8125 C 90.679688 -324.300781 89.816406 -324.851562 89.078125 -325.46875 C 88.335938 -326.082031 87.597656 -326.632812 86.859375 -327.125 L 80.21875 -330.828125 C 79.226562 -331.566406 78.238281 -332.242188 77.25 -332.859375 C 76.269531 -333.472656 75.285156 -334.148438 74.296875 -334.890625 C 73.304688 -335.390625 72.257812 -336.003906 71.15625 -336.734375 C 70.050781 -337.472656 68.878906 -338.210938 67.640625 -338.953125 C 66.898438 -339.941406 65.914062 -340.5625 64.6875 -340.8125 C 62.957031 -341.789062 61.601562 -341.789062 60.625 -340.8125 C 60.375 -340.5625 60.125 -340.3125 59.875 -340.0625 C 59.632812 -339.820312 59.265625 -339.578125 58.765625 -339.328125 L 56.1875 -335.640625 C 55.695312 -334.898438 55.140625 -334.160156 54.515625 -333.421875 C 53.898438 -332.679688 53.347656 -331.816406 52.859375 -330.828125 C 52.117188 -329.835938 51.441406 -328.847656 50.828125 -327.859375 C 50.210938 -326.878906 49.535156 -325.898438 48.796875 -324.921875 L 45.46875 -320.484375 C 44.476562 -319.003906 43.242188 -317.273438 41.765625 -315.296875 C 41.523438 -314.554688 41.09375 -313.816406 40.46875 -313.078125 C 39.851562 -312.347656 39.300781 -311.613281 38.8125 -310.875 C 38.070312 -310.132812 37.394531 -309.332031 36.78125 -308.46875 C 36.164062 -307.601562 35.609375 -306.800781 35.109375 -306.0625 C 34.617188 -305.070312 34.066406 -304.207031 33.453125 -303.46875 C 32.835938 -302.726562 32.285156 -301.988281 31.796875 -301.25 C 31.296875 -300.269531 30.675781 -299.347656 29.9375 -298.484375 C 29.195312 -297.617188 28.457031 -296.570312 27.71875 -295.34375 L 24.765625 -291.28125 C 24.273438 -290.78125 23.78125 -289.789062 23.28125 -288.3125 C 22.789062 -287.082031 23.039062 -285.976562 24.03125 -285 C 24.519531 -284.5 25.070312 -284.125 25.6875 -283.875 C 26.300781 -283.632812 26.734375 -283.269531 26.984375 -282.78125 C 29.203125 -281.300781 31.296875 -280.066406 33.265625 -279.078125 L 39.1875 -275.75 C 40.164062 -275.257812 41.085938 -274.707031 41.953125 -274.09375 C 42.816406 -273.476562 43.617188 -272.921875 44.359375 -272.421875 C 44.847656 -272.179688 45.335938 -271.9375 45.828125 -271.6875 C 46.328125 -271.4375 46.820312 -271.066406 47.3125 -270.578125 C 47.800781 -270.328125 48.664062 -270.203125 49.90625 -270.203125 Z M 24.390625 -129.375 L 24.390625 -99.4375 C 24.390625 -94.507812 24.328125 -89.519531 24.203125 -84.46875 C 24.085938 -79.414062 24.03125 -74.425781 24.03125 -69.5 L 24.03125 -39.921875 C 24.03125 -34.992188 24.148438 -30.003906 24.390625 -24.953125 C 24.640625 -19.898438 24.765625 -14.910156 24.765625 -9.984375 C 24.765625 -8.253906 24.890625 -7.019531 25.140625 -6.28125 C 25.878906 -3.082031 27.601562 -1.234375 30.3125 -0.734375 C 31.300781 -0.492188 32.285156 -0.375 33.265625 -0.375 C 34.253906 -0.375 35.238281 -0.375 36.21875 -0.375 C 40.414062 -0.375 44.789062 -0.3125 49.34375 -0.1875 C 53.90625 -0.0625 58.28125 0 62.46875 0 C 63.207031 0 63.882812 -0.117188 64.5 -0.359375 C 65.113281 -0.609375 65.914062 -0.734375 66.90625 -0.734375 C 67.394531 -0.984375 68.007812 -1.171875 68.75 -1.296875 C 69.488281 -1.421875 70.101562 -1.726562 70.59375 -2.21875 C 71.09375 -2.957031 71.585938 -4.3125 72.078125 -6.28125 C 72.816406 -8.25 73.1875 -10.097656 73.1875 -11.828125 C 73.1875 -16.265625 73.125 -20.640625 73 -24.953125 C 72.875 -29.265625 72.8125 -33.640625 72.8125 -38.078125 C 72.8125 -42.503906 72.875 -46.9375 73 -51.375 C 73.125 -55.8125 73.1875 -60.125 73.1875 -64.3125 L 73.1875 -90.9375 C 73.1875 -95.125 73.1875 -99.429688 73.1875 -103.859375 C 73.1875 -108.296875 73.1875 -112.734375 73.1875 -117.171875 C 73.1875 -121.609375 73.125 -125.984375 73 -130.296875 C 72.875 -134.609375 72.8125 -138.984375 72.8125 -143.421875 C 72.8125 -147.859375 72.8125 -152.234375 72.8125 -156.546875 C 72.8125 -160.859375 72.566406 -165.234375 72.078125 -169.671875 L 72.078125 -195.90625 C 72.078125 -200.34375 72.257812 -204.78125 72.625 -209.21875 C 73 -213.65625 73.1875 -218.09375 73.1875 -222.53125 C 73.1875 -226.71875 73.125 -231.023438 73 -235.453125 C 72.875 -239.890625 72.8125 -244.328125 72.8125 -248.765625 L 72.8125 -252.46875 C 71.832031 -255.175781 69.863281 -256.898438 66.90625 -257.640625 C 65.914062 -257.890625 64.925781 -258.015625 63.9375 -258.015625 C 62.957031 -258.015625 61.972656 -258.015625 60.984375 -258.015625 C 56.554688 -258.015625 52.125 -258.132812 47.6875 -258.375 C 43.25 -258.625 38.8125 -258.75 34.375 -258.75 C 33.144531 -258.75 31.789062 -258.503906 30.3125 -258.015625 C 29.820312 -257.765625 29.207031 -257.578125 28.46875 -257.453125 C 27.726562 -257.328125 26.988281 -257.019531 26.25 -256.53125 C 25.257812 -255.539062 24.519531 -254.1875 24.03125 -252.46875 L 24.03125 -251.359375 C 24.03125 -250.617188 24.085938 -249.816406 24.203125 -248.953125 C 24.328125 -248.085938 24.390625 -247.285156 24.390625 -246.546875 L 24.390625 -217.34375 C 24.390625 -212.414062 24.328125 -207.488281 24.203125 -202.5625 C 24.085938 -197.632812 24.03125 -192.707031 24.03125 -187.78125 L 24.03125 -158.578125 C 24.03125 -153.890625 24.085938 -149.082031 24.203125 -144.15625 C 24.328125 -139.226562 24.390625 -134.300781 24.390625 -129.375 Z M 24.390625 -129.375 "/></g></g></g></svg>